<?xml version="1.0" encoding="utf-8"?>
<!-- Generator: Adobe Illustrator 22.1.0, SVG Export Plug-In . SVG Version: 6.00 Build 0)  -->
<svg version="1.1" id="图层_1" xmlns="http://www.w3.org/2000/svg" xmlns:xlink="http://www.w3.org/1999/xlink" x="0px" y="0px"
	 viewBox="0 0 30 30" style="enable-background:new 0 0 30 30;" xml:space="preserve">
<style type="text/css">
	.st0{fill:#222222;enable-background:new    ;}
	.st1{fill:#FFFFFF;}
</style>
<circle class="st0" cx="15" cy="15" r="15"/>
<g>
	<path class="st1" d="M15,12V8c0-0.5-0.4-1-1-1H7C6.5,7,6,7.4,6,8v7c0,0.5,0.5,1,1,1h5v-3.3l-0.2-0.5H9.4l-1,2.4H7.3l3-6.5H11l1.8,4
		H15V12z"/>
	<polygon class="st1" points="9.8,11.3 11.4,11.3 10.6,9.4 	"/>
	<path class="st1" d="M23,13h-9c-0.6,0-1,0.5-1,1v8c0,0.5,0.4,1,1,1h9c0.5,0,1-0.5,1-1v-8C24,13.5,23.5,13,23,13z M21,19h-2v2h-1v-2
		h-2v-3h2v-1h1v1h2V19z"/>
	<rect x="17" y="17" class="st1" width="1" height="1"/>
	<rect x="19" y="17" class="st1" width="1" height="1"/>
</g>
<rect x="16" y="9" class="st1" width="3" height="1"/>
<rect x="18" y="9" class="st1" width="1" height="3"/>
<rect x="8.9" y="19" class="st1" width="3" height="1"/>
<rect x="9" y="17" class="st1" width="1" height="3"/>
</svg>
