<?xml version="1.0" encoding="utf-8"?>
<!-- Generator: Adobe Illustrator 22.1.0, SVG Export Plug-In . SVG Version: 6.00 Build 0)  -->
<svg version="1.1" id="图层_1" xmlns="http://www.w3.org/2000/svg" xmlns:xlink="http://www.w3.org/1999/xlink" x="0px" y="0px"
	 viewBox="0 0 16 16" style="enable-background:new 0 0 16 16;" xml:space="preserve">
<style type="text/css">
	.st0{fill:#9DA7A9;}
</style>
<g>
	<path class="st0" d="M6.5,7.5h-3c-0.6,0-1-0.4-1-1v-3c0-0.6,0.4-1,1-1h3c0.6,0,1,0.4,1,1v3C7.5,7,7,7.5,6.5,7.5z"/>
	<path class="st0" d="M12.5,7.5h-3c-0.5,0-1-0.4-1-1v-3c0-0.6,0.5-1,1-1h3c0.6,0,1,0.4,1,1v3C13.5,7,13.1,7.5,12.5,7.5z"/>
	<path class="st0" d="M6.5,13.5h-3c-0.6,0-1-0.4-1-1v-3c0-0.5,0.4-1,1-1h3c0.6,0,1,0.5,1,1v3C7.5,13.1,7,13.5,6.5,13.5z"/>
	<path class="st0" d="M12.5,13.5h-3c-0.5,0-1-0.4-1-1v-3c0-0.5,0.5-1,1-1h3c0.6,0,1,0.5,1,1v3C13.5,13.1,13.1,13.5,12.5,13.5z"/>
</g>
</svg>
