<?xml version="1.0" encoding="utf-8"?>
<!-- Generator: Adobe Illustrator 22.1.0, SVG Export Plug-In . SVG Version: 6.00 Build 0)  -->
<svg version="1.1" id="图层_1" xmlns="http://www.w3.org/2000/svg" xmlns:xlink="http://www.w3.org/1999/xlink" x="0px" y="0px"
	 viewBox="0 0 16 16" style="enable-background:new 0 0 16 16;" xml:space="preserve">
<style type="text/css">
	.st0{fill:#4795E7;}
</style>
<path class="st0" d="M12,11c0,0.6-0.5,1-1,1H5c-0.5,0-1-0.4-1-1V5c0-0.5,0.5-1,1-1h4V2H3C2.4,2,2,2.5,2,3v10c0,0.6,0.5,1,1,1h10
	c0.5,0,1-0.4,1-1V7h-2V11z"/>
<polygon class="st0" points="6.5,11 5,11 5,9.6 12.6,2 14,3.4 "/>
</svg>
