<svg 
 xmlns="http://www.w3.org/2000/svg"
 xmlns:xlink="http://www.w3.org/1999/xlink"
 width="20px" height="23px">
<path fill-rule="evenodd"  fill="rgb(255, 255, 255)"
 d="M19.603,21.583 C19.066,22.145 18.196,22.145 17.660,21.583 L14.056,17.803 C10.445,19.777 5.826,19.244 2.769,16.192 C-0.945,12.485 -0.945,6.475 2.769,2.768 C6.482,-0.938 12.504,-0.938 16.218,2.768 C19.899,6.443 19.926,12.377 16.309,16.091 L19.603,19.545 C20.139,20.107 20.139,21.020 19.603,21.583 ZM14.805,4.161 C11.871,1.225 7.113,1.225 4.179,4.161 C1.245,7.097 1.245,11.857 4.179,14.793 C7.113,17.729 11.871,17.729 14.805,14.793 C14.819,14.779 14.828,14.762 14.842,14.748 C14.656,14.396 14.491,14.184 14.745,14.450 L14.928,14.642 C17.723,11.697 17.692,7.050 14.805,4.161 Z"/>
</svg>