<?xml version="1.0" encoding="utf-8"?>
<!-- Generator: Adobe Illustrator 22.1.0, SVG Export Plug-In . SVG Version: 6.00 Build 0)  -->
<svg version="1.1" id="图层_1" xmlns="http://www.w3.org/2000/svg" xmlns:xlink="http://www.w3.org/1999/xlink" x="0px" y="0px"
	 viewBox="0 0 16 16" style="enable-background:new 0 0 16 16;" xml:space="preserve">
<style type="text/css">
	.st0{fill:#9DA7A9;}
</style>
<g>
	<path class="st0" d="M3.5,5h9c0.5,0,1-0.5,1-1s-0.5-1-1-1h-9c-0.5,0-1,0.5-1,1S3,5,3.5,5z"/>
	<path class="st0" d="M12.5,7h-9c-0.5,0-1,0.5-1,1s0.5,1,1,1h9c0.5,0,1-0.5,1-1S13,7,12.5,7z"/>
	<path class="st0" d="M12.5,11h-9c-0.5,0-1,0.5-1,1s0.5,1,1,1h9c0.5,0,1-0.5,1-1S13,11,12.5,11z"/>
</g>
</svg>
