<?xml version="1.0" encoding="utf-8"?>
<!-- Generator: Adobe Illustrator 16.0.0, SVG Export Plug-In . SVG Version: 6.00 Build 0)  -->
<!DOCTYPE svg PUBLIC "-//W3C//DTD SVG 1.1//EN" "http://www.w3.org/Graphics/SVG/1.1/DTD/svg11.dtd">
<svg version="1.1" id="图层_1" xmlns="http://www.w3.org/2000/svg" xmlns:xlink="http://www.w3.org/1999/xlink" x="0px" y="0px"
	 width="20px" height="20px" viewBox="0 0 20 20" enable-background="new 0 0 20 20" xml:space="preserve">
<path fill="#444444" d="M11.059,18.155v1.113H8.831v-1.113c-2.45,0-4.455-2.005-4.455-4.455h2.228c0,1.225,1.002,2.228,2.228,2.228
	v-4.455c-2.45,0-4.455-2.004-4.455-4.455c0-2.45,2.005-4.455,4.455-4.455V1.449h2.228v1.113c2.449,0,4.455,2.005,4.455,4.455h-2.229
	c0-1.226-1.002-2.228-2.227-2.228v4.455h0.443c0.781,0,1.783,0.445,2.562,1.113c0.891,0.78,1.561,2.005,1.561,3.342
	C15.514,16.15,13.508,18.155,11.059,18.155z M11.059,15.928c1.225,0,2.227-1.003,2.227-2.228c0-1.226-1.002-2.228-2.227-2.228
	V15.928L11.059,15.928z M8.831,4.79c-1.226,0-2.228,1.002-2.228,2.228s1.002,2.228,2.228,2.228V4.79z"/>
</svg>
