<?xml version="1.0" encoding="utf-8"?>
<!-- Generator: Adobe Illustrator 22.1.0, SVG Export Plug-In . SVG Version: 6.00 Build 0)  -->
<svg version="1.1" id="图层_1" xmlns="http://www.w3.org/2000/svg" xmlns:xlink="http://www.w3.org/1999/xlink" x="0px" y="0px"
	 viewBox="0 0 16 16" style="enable-background:new 0 0 16 16;" xml:space="preserve">
<style type="text/css">
	.st0{fill:#F95F5D;}
	.st1{fill:#55C7F7;}
	.st2{fill:#7ECF3B;}
	.st3{fill:#FDAF42;}
	.st4{fill:#FFFFFF;}
</style>
<path class="st0" d="M1.5,6h13v4h-13V6z"/>
<path class="st1" d="M14.5,6V2.8c0-0.4-0.3-0.8-0.8-0.8H2.3C1.8,2,1.5,2.3,1.5,2.8V6H14.5z"/>
<path class="st2" d="M1.5,10v3.2c0,0.4,0.3,0.8,0.8,0.8h11.4c0.5,0,0.8-0.3,0.8-0.8V10H1.5z"/>
<path class="st3" d="M6.6,2h2.9v12H6.6V2z"/>
<path class="st4" d="M9.6,7.1v1.8h-3V7.1H9.6 M10.1,6.4H6C6,6.4,5.9,6.5,5.9,6.6v2.8c0,0.1,0.1,0.2,0.2,0.2h4c0.1,0,0.2-0.1,0.2-0.2
	V6.6C10.2,6.5,10.1,6.4,10.1,6.4z"/>
</svg>
